<svg width="95" height="35" viewBox="0 0 95 35" fill="none" xmlns="http://www.w3.org/2000/svg">
<path d="M19.6099 23.868V27H1.50192V24.552L11.7619 14.652C13.0099 13.452 13.8499 12.42 14.2819 11.556C14.7139 10.668 14.9299 9.78 14.9299 8.892C14.9299 7.572 14.4619 6.552 13.5259 5.832C12.6139 5.088 11.2939 4.716 9.56592 4.716C6.78192 4.716 4.63392 5.628 3.12192 7.452L0.673922 5.328C1.65792 4.128 2.94192 3.192 4.52592 2.52C6.13392 1.848 7.92192 1.512 9.88992 1.512C12.5299 1.512 14.6299 2.148 16.1899 3.42C17.7499 4.668 18.5299 6.372 18.5299 8.532C18.5299 9.876 18.2419 11.148 17.6659 12.348C17.0899 13.548 15.9979 14.916 14.3899 16.452L6.68592 23.868H19.6099ZM24.1178 0.287998H27.5738V27H24.1178V0.287998ZM51.4165 17.568C51.4165 17.832 51.3925 18.18 51.3445 18.612H35.8645C36.0805 20.292 36.8125 21.648 38.0605 22.68C39.3325 23.688 40.9045 24.192 42.7765 24.192C45.0565 24.192 46.8925 23.424 48.2845 21.888L50.1925 24.12C49.3285 25.128 48.2485 25.896 46.9525 26.424C45.6805 26.952 44.2525 27.216 42.6685 27.216C40.6525 27.216 38.8645 26.808 37.3045 25.992C35.7445 25.152 34.5325 23.988 33.6685 22.5C32.8285 21.012 32.4085 19.332 32.4085 17.46C32.4085 15.612 32.8165 13.944 33.6325 12.456C34.4725 10.968 35.6125 9.816 37.0525 9C38.5165 8.16 40.1605 7.74 41.9845 7.74C43.8085 7.74 45.4285 8.16 46.8445 9C48.2845 9.816 49.4005 10.968 50.1925 12.456C51.0085 13.944 51.4165 15.648 51.4165 17.568ZM41.9845 10.656C40.3285 10.656 38.9365 11.16 37.8085 12.168C36.7045 13.176 36.0565 14.496 35.8645 16.128H48.1045C47.9125 14.52 47.2525 13.212 46.1245 12.204C45.0205 11.172 43.6405 10.656 41.9845 10.656ZM74.4675 7.92V24.408C74.4675 27.744 73.6395 30.204 71.9835 31.788C70.3275 33.396 67.8555 34.2 64.5675 34.2C62.7675 34.2 61.0515 33.948 59.4195 33.444C57.7875 32.964 56.4675 32.268 55.4595 31.356L57.1155 28.692C58.0035 29.46 59.0955 30.06 60.3915 30.492C61.7115 30.948 63.0675 31.176 64.4595 31.176C66.6915 31.176 68.3355 30.648 69.3915 29.592C70.4715 28.536 71.0115 26.928 71.0115 24.768V23.256C70.1955 24.24 69.1875 24.984 67.9875 25.488C66.8115 25.968 65.5275 26.208 64.1355 26.208C62.3115 26.208 60.6555 25.824 59.1675 25.056C57.7035 24.264 56.5515 23.172 55.7115 21.78C54.8715 20.364 54.4515 18.756 54.4515 16.956C54.4515 15.156 54.8715 13.56 55.7115 12.168C56.5515 10.752 57.7035 9.66 59.1675 8.892C60.6555 8.124 62.3115 7.74 64.1355 7.74C65.5755 7.74 66.9075 8.004 68.1315 8.532C69.3795 9.06 70.3995 9.84 71.1915 10.872V7.92H74.4675ZM64.5315 23.184C65.7795 23.184 66.8955 22.92 67.8795 22.392C68.8875 21.864 69.6675 21.132 70.2195 20.196C70.7955 19.236 71.0835 18.156 71.0835 16.956C71.0835 15.108 70.4715 13.62 69.2475 12.492C68.0235 11.34 66.4515 10.764 64.5315 10.764C62.5875 10.764 61.0035 11.34 59.7795 12.492C58.5555 13.62 57.9435 15.108 57.9435 16.956C57.9435 18.156 58.2195 19.236 58.7715 20.196C59.3475 21.132 60.1275 21.864 61.1115 22.392C62.1195 22.92 63.2595 23.184 64.5315 23.184ZM86.5429 27.216C84.9829 27.216 83.4829 27.012 82.0429 26.604C80.6029 26.172 79.4749 25.632 78.6589 24.984L80.0989 22.248C80.9389 22.848 81.9589 23.328 83.1589 23.688C84.3589 24.048 85.5709 24.228 86.7949 24.228C89.8189 24.228 91.3309 23.364 91.3309 21.636C91.3309 21.06 91.1269 20.604 90.7189 20.268C90.3109 19.932 89.7949 19.692 89.1709 19.548C88.5709 19.38 87.7069 19.2 86.5789 19.008C85.0429 18.768 83.7829 18.492 82.7989 18.18C81.8389 17.868 81.0109 17.34 80.3149 16.596C79.6189 15.852 79.2709 14.808 79.2709 13.464C79.2709 11.736 79.9909 10.356 81.4309 9.324C82.8709 8.268 84.8029 7.74 87.2269 7.74C88.4989 7.74 89.7709 7.896 91.0429 8.208C92.3149 8.52 93.3589 8.94 94.1749 9.468L92.6989 12.204C91.1389 11.196 89.3029 10.692 87.1909 10.692C85.7269 10.692 84.6109 10.932 83.8429 11.412C83.0749 11.892 82.6909 12.528 82.6909 13.32C82.6909 13.944 82.9069 14.436 83.3389 14.796C83.7709 15.156 84.2989 15.42 84.9229 15.588C85.5709 15.756 86.4709 15.948 87.6229 16.164C89.1589 16.428 90.3949 16.716 91.3309 17.028C92.2909 17.316 93.1069 17.82 93.7789 18.54C94.4509 19.26 94.7869 20.268 94.7869 21.564C94.7869 23.292 94.0429 24.672 92.5549 25.704C91.0909 26.712 89.0869 27.216 86.5429 27.216Z" fill="white"/>
</svg>
