<svg width="438" height="110" viewBox="0 0 438 110" fill="none" xmlns="http://www.w3.org/2000/svg">
<rect x="48.5" y="21.5" width="341" height="68" rx="19.5" stroke="white"/>
<path d="M167.683 54.74C168.63 54.9667 169.343 55.3733 169.823 55.96C170.317 56.5333 170.563 57.2733 170.563 58.18C170.563 59.3933 170.117 60.3333 169.223 61C168.343 61.6667 167.057 62 165.363 62H158.963V48H164.983C166.517 48 167.71 48.3133 168.563 48.94C169.43 49.5533 169.863 50.44 169.863 51.6C169.863 52.36 169.67 53.0067 169.283 53.54C168.91 54.0733 168.377 54.4733 167.683 54.74ZM160.943 54.16H164.843C165.817 54.16 166.557 53.9667 167.063 53.58C167.583 53.1933 167.843 52.6267 167.843 51.88C167.843 51.1333 167.583 50.5667 167.063 50.18C166.543 49.78 165.803 49.58 164.843 49.58H160.943V54.16ZM165.323 60.42C167.47 60.42 168.543 59.62 168.543 58.02C168.543 57.22 168.27 56.6333 167.723 56.26C167.19 55.8733 166.39 55.68 165.323 55.68H160.943V60.42H165.323ZM184.156 55.84H181.236V62H179.276V48H181.236V54.08H184.196L188.596 48H190.736L185.736 54.78L190.976 62H188.696L184.156 55.84ZM199.287 62.16C197.873 62.16 196.6 61.8533 195.467 61.24C194.333 60.6133 193.44 59.7533 192.787 58.66C192.147 57.5667 191.827 56.3467 191.827 55C191.827 53.6533 192.147 52.4333 192.787 51.34C193.44 50.2467 194.333 49.3933 195.467 48.78C196.6 48.1533 197.873 47.84 199.287 47.84C200.687 47.84 201.953 48.1533 203.087 48.78C204.22 49.3933 205.107 50.2467 205.747 51.34C206.387 52.42 206.707 53.64 206.707 55C206.707 56.36 206.387 57.5867 205.747 58.68C205.107 59.76 204.22 60.6133 203.087 61.24C201.953 61.8533 200.687 62.16 199.287 62.16ZM199.287 60.38C200.313 60.38 201.233 60.1467 202.047 59.68C202.873 59.2133 203.52 58.5733 203.987 57.76C204.467 56.9333 204.707 56.0133 204.707 55C204.707 53.9867 204.467 53.0733 203.987 52.26C203.52 51.4333 202.873 50.7867 202.047 50.32C201.233 49.8533 200.313 49.62 199.287 49.62C198.26 49.62 197.327 49.8533 196.487 50.32C195.66 50.7867 195.007 51.4333 194.527 52.26C194.06 53.0733 193.827 53.9867 193.827 55C193.827 56.0133 194.06 56.9333 194.527 57.76C195.007 58.5733 195.66 59.2133 196.487 59.68C197.327 60.1467 198.26 60.38 199.287 60.38ZM215.4 48C217.213 48 218.64 48.4333 219.68 49.3C220.72 50.1667 221.24 51.36 221.24 52.88C221.24 54.4 220.72 55.5933 219.68 56.46C218.64 57.3267 217.213 57.76 215.4 57.76H211.94V62H209.94V48H215.4ZM215.34 56.02C216.606 56.02 217.573 55.7533 218.24 55.22C218.906 54.6733 219.24 53.8933 219.24 52.88C219.24 51.8667 218.906 51.0933 218.24 50.56C217.573 50.0133 216.606 49.74 215.34 49.74H211.94V56.02H215.34ZM230.566 54.7C231.446 54.94 232.132 55.36 232.626 55.96C233.119 56.5467 233.366 57.2533 233.366 58.08C233.366 58.9067 233.099 59.6333 232.566 60.26C232.046 60.8733 231.346 61.3467 230.466 61.68C229.599 62 228.652 62.16 227.626 62.16C226.692 62.16 225.766 62.02 224.846 61.74C223.926 61.46 223.086 61.04 222.326 60.48L223.026 59C223.639 59.48 224.326 59.84 225.086 60.08C225.846 60.32 226.612 60.44 227.386 60.44C228.506 60.44 229.446 60.2067 230.206 59.74C230.966 59.26 231.346 58.6067 231.346 57.78C231.346 57.0733 231.059 56.5333 230.486 56.16C229.912 55.7733 229.106 55.58 228.066 55.58H224.946V53.96H227.926C228.819 53.96 229.512 53.78 230.006 53.42C230.512 53.0467 230.766 52.5333 230.766 51.88C230.766 51.1467 230.439 50.5667 229.786 50.14C229.132 49.7133 228.306 49.5 227.306 49.5C226.652 49.5 225.986 49.5933 225.306 49.78C224.639 49.9667 224.006 50.2467 223.406 50.62L222.766 48.98C223.472 48.58 224.219 48.28 225.006 48.08C225.792 47.88 226.579 47.78 227.366 47.78C228.352 47.78 229.259 47.9333 230.086 48.24C230.912 48.5467 231.566 48.9933 232.046 49.58C232.539 50.1667 232.786 50.8533 232.786 51.64C232.786 52.3467 232.586 52.9667 232.186 53.5C231.799 54.0333 231.259 54.4333 230.566 54.7ZM236.698 48H238.678V58.8L246.958 48H248.798V62H246.838V51.22L238.538 62H236.698V48ZM265.202 48V62H263.202V55.76H255.162V62H253.162V48H255.162V54.02H263.202V48H265.202ZM281.029 48L274.809 59.54C274.315 60.46 273.735 61.1467 273.069 61.6C272.402 62.0533 271.675 62.28 270.889 62.28C270.275 62.28 269.649 62.14 269.009 61.86L269.529 60.26C270.022 60.4333 270.462 60.52 270.849 60.52C271.729 60.52 272.455 60.0533 273.029 59.12L273.349 58.62L267.709 48H269.849L274.389 56.88L279.049 48H281.029Z" fill="white"/>
</svg>
